<svg xmlns="http://www.w3.org/2000/svg" width="989" height="1024"><path d="M887.275 343.402c-.484-33.194-6.631-66.125-18.404-97.17a202.3 202.3 0 0 0-115.648-115.455c-30.699-11.532-63.16-17.715-96.012-18.417-42.252-1.886-55.649-2.412-162.908-2.412s-121.005 0-162.951 2.412c-32.81.702-65.269 6.884-95.97 18.417-53.102 20.521-95.091 62.441-115.647 115.455a286.928 286.928 0 0 0-18.403 95.81c-1.889 42.226-2.46 55.602-2.46 162.68s0 120.761 2.46 162.682c.659 32.8 6.852 65.158 18.403 95.896a202.297 202.297 0 0 0 115.691 115.412c30.57 11.928 63.028 18.679 95.97 19.731 42.298 1.886 55.695 2.458 162.953 2.458 107.255 0 121.005 0 162.95-2.458 32.81-.657 65.268-6.84 96.012-18.372 53.103-20.565 95.048-62.485 115.648-115.454 11.55-30.695 17.743-63.057 18.404-95.899 1.889-42.182 2.461-55.557 2.461-162.678-.088-107.082-.088-120.673-2.549-162.638zM494.038 707.217c-112.177 0-203.051-90.723-203.051-202.713s90.874-202.715 203.051-202.715c112.093 0 203.056 90.725 203.056 202.715s-90.963 202.713-203.056 202.713zM705.172 341.56c-26.221 0-47.348-21.135-47.348-47.27s21.126-47.269 47.348-47.269c26.133 0 47.305 21.135 47.305 47.269s-21.172 47.27-47.305 47.27z"/><path d="M494.098 628.28c68.322 0 123.71-55.384 123.71-123.71 0-68.322-55.388-123.71-123.71-123.71s-123.71 55.388-123.71 123.71c0 68.326 55.388 123.71 123.71 123.71z"/></svg>