<svg xmlns="http://www.w3.org/2000/svg" width="989" height="1024"><path d="M748.936 196.461c-42.019-2.472-128.53-4.943-259.531-4.943h-17.302c-126.058 0-210.095 2.472-252.115 7.415-56.85 4.943-96.398 19.774-118.644 39.548-19.774 17.302-34.603 49.434-39.547 91.454-2.472 27.188-4.944 84.038-4.944 170.548v12.359c0 81.567 2.471 138.417 7.415 165.606 7.415 39.548 19.775 69.208 44.492 86.51 24.717 19.774 66.736 32.132 126.058 37.076 42.019 2.472 128.529 4.943 259.53 4.943h17.302c126.058 0 210.097-2.472 252.116-7.415 56.85-4.943 96.397-19.774 118.643-39.548 19.774-17.302 34.604-49.434 39.548-91.454 2.472-27.189 4.943-84.039 4.943-170.549v-12.359c0-81.567-2.472-138.415-7.415-165.604-7.415-39.548-19.774-69.208-44.491-86.51-24.717-19.774-66.737-32.132-126.058-37.076zm-96.397 304.021-271.89 163.134V337.349l271.89 163.133z"/></svg>